<svg xmlns="http://www.w3.org/2000/svg" width="340" height="460" viewBox="0 0 340 460" font-family="-apple-system, 'SF Pro Text', Helvetica, Arial, sans-serif">
  <!-- popup background -->
  <rect width="340" height="460" rx="14" fill="#1F1F22"/>

  <!-- header -->
  <rect x="18" y="18" width="30" height="30" rx="9" fill="#D97757"/>
  <path d="M33 22 l1.6 4.6 4.6 1.6 -4.6 1.6 -1.6 4.6 -1.6 -4.6 -4.6 -1.6 4.6 -1.6 Z" fill="#fff"/>
  <path d="M41 38 l0.8 2.2 2.2 0.8 -2.2 0.8 -0.8 2.2 -0.8 -2.2 -2.2 -0.8 2.2 -0.8 Z" fill="#fff"/>
  <text x="59" y="40" font-size="18" font-weight="500" fill="#F2F2F3">Claude</text>
  <path d="M315 27 a7 7 0 1 0 5 3" fill="none" stroke="#9A9AA0" stroke-width="2" stroke-linecap="round"/>
  <path d="M313 24 l3 3 -4 1 Z" fill="#9A9AA0"/>

  <!-- pills -->
  <rect x="18" y="64" width="148" height="30" rx="11" fill="#D97757"/>
  <text x="92" y="83" font-size="13" font-weight="500" fill="#fff" text-anchor="middle">Claude</text>
  <rect x="174" y="64" width="148" height="30" rx="11" fill="#2E2E33"/>
  <text x="248" y="83" font-size="13" font-weight="500" fill="#9A9AA0" text-anchor="middle">ChatGPT</text>

  <!-- card 1: session 12% -->
  <rect x="18" y="106" width="304" height="86" rx="16" fill="#2A2A2E"/>
  <text x="32" y="134" font-size="14" font-weight="600" fill="#F2F2F3">Current session</text>
  <text x="308" y="134" font-size="13" font-weight="600" fill="#D97757" text-anchor="end">12%</text>
  <rect x="32" y="146" width="276" height="9" rx="4.5" fill="#3A3A40"/>
  <rect x="32" y="146" width="33" height="9" rx="4.5" fill="#D97757"/>
  <circle cx="38" cy="174" r="6" fill="none" stroke="#76767C" stroke-width="1.5"/>
  <path d="M38 171 v3 l2 1.5" fill="none" stroke="#76767C" stroke-width="1.5" stroke-linecap="round"/>
  <text x="50" y="178" font-size="12" fill="#9A9AA0">Resets Jun 25 at 3:29am (Moscow)</text>

  <!-- card 2: week all 5% -->
  <rect x="18" y="206" width="304" height="86" rx="16" fill="#2A2A2E"/>
  <text x="32" y="234" font-size="14" font-weight="600" fill="#F2F2F3">Current week (all models)</text>
  <text x="308" y="234" font-size="13" font-weight="600" fill="#1D9E75" text-anchor="end">5%</text>
  <rect x="32" y="246" width="276" height="9" rx="4.5" fill="#3A3A40"/>
  <rect x="32" y="246" width="14" height="9" rx="4.5" fill="#1D9E75"/>
  <circle cx="38" cy="274" r="6" fill="none" stroke="#76767C" stroke-width="1.5"/>
  <path d="M38 271 v3 l2 1.5" fill="none" stroke="#76767C" stroke-width="1.5" stroke-linecap="round"/>
  <text x="50" y="278" font-size="12" fill="#9A9AA0">Resets Jun 26 at 6:59am (Moscow)</text>

  <!-- card 3: sonnet 88% (high -> orange) -->
  <rect x="18" y="306" width="304" height="86" rx="16" fill="#2A2A2E"/>
  <text x="32" y="334" font-size="14" font-weight="600" fill="#F2F2F3">Current week (Sonnet only)</text>
  <path d="M266 326 l6 11 -12 0 Z" fill="#E8743B"/>
  <rect x="265.2" y="332" width="1.6" height="3.4" fill="#fff"/>
  <circle cx="266" cy="336.4" r="0.9" fill="#fff"/>
  <text x="308" y="334" font-size="13" font-weight="600" fill="#E8743B" text-anchor="end">88%</text>
  <rect x="32" y="346" width="276" height="9" rx="4.5" fill="#3A3A40"/>
  <rect x="32" y="346" width="243" height="9" rx="4.5" fill="#E8743B"/>
  <circle cx="38" cy="374" r="6" fill="none" stroke="#76767C" stroke-width="1.5"/>
  <path d="M38 371 v3 l2 1.5" fill="none" stroke="#76767C" stroke-width="1.5" stroke-linecap="round"/>
  <text x="50" y="378" font-size="12" fill="#9A9AA0">Resets Jun 26 at 7:00am (Moscow)</text>

  <!-- footer -->
  <line x1="0" y1="418" x2="340" y2="418" stroke="#FFFFFF" stroke-opacity="0.12"/>
  <text x="16" y="440" font-size="11" fill="#9A9AA0">🔍 Debug</text>
  <text x="170" y="440" font-size="11" fill="#9A9AA0" text-anchor="middle">Обновляется каждые 15 мин</text>
  <text x="324" y="440" font-size="11" fill="#9A9AA0" text-anchor="end">Выйти</text>
</svg>
